<?xml version="1.0" standalone="no"?>
<!DOCTYPE svg PUBLIC "-//W3C//DTD SVG 1.1//EN" "http://www.w3.org/Graphics/SVG/1.1/DTD/svg11.dtd" >
<svg>
<metadata>
Created by FontForge 20090622 at Mon Jan 13 17:41:16 2020
 By deploy user
Copyright (c) 2006 by studio Kmzero. All rights reserved.
</metadata>
<defs>
<font id="Prozak-Bold" horiz-adv-x="352" >
  <font-face 
    font-family="Prozak"
    font-weight="700"
    font-stretch="normal"
    units-per-em="1000"
    panose-1="2 0 0 0 0 0 0 0 0 0"
    ascent="800"
    descent="-200"
    x-height="494"
    cap-height="709"
    bbox="-71 -250 1000 1536"
    underline-thickness="50"
    underline-position="-75"
    unicode-range="U+0020-U+2122"
  />
<missing-glyph horiz-adv-x="456" 
d="M41 0v1536h375v-1536h-375zM103 63h250v1411h-250v-1411z" />
    <glyph glyph-name=".notdef" horiz-adv-x="456" 
d="M41 0v1536h375v-1536h-375zM103 63h250v1411h-250v-1411z" />
    <glyph glyph-name="NULL" horiz-adv-x="0" 
 />
    <glyph glyph-name="space" unicode=" " horiz-adv-x="162" 
 />
    <glyph glyph-name="exclam" unicode="!" horiz-adv-x="176" 
d="M136 -1h-102v101h102v-101zM136 708l-22 -491h-58l-22 491h102z" />
    <glyph glyph-name="quotedbl" unicode="&#x22;" horiz-adv-x="288" 
d="M165 712h80v-176h-80v176zM33 712h80v-176h-80v176z" />
    <glyph glyph-name="numbersign" unicode="#" horiz-adv-x="437" 
d="M264 408h-57l-33 -114h58zM429 706l-63 -221h57l-22 -77h-57l-33 -114h57l-22 -77h-57l-63 -220h-80l63 220h-57l-63 -220h-80l64 220h-57l22 77h57l32 114h-57l22 77h57l64 221h80l-64 -221h57l64 221h79z" />
    <glyph glyph-name="dollar" unicode="$" horiz-adv-x="380" 
d="M339 144q0 -52 -37.5 -94t-88.5 -50v-72h-51v72q-55 8 -91 51.5t-36 98.5v50h102v-50q0 -28 25 -44v258q-58 9 -92.5 53t-34.5 104v50q0 56 35.5 98.5t91.5 51.5v71h51v-71q52 -8 89 -50t37 -95v-55h-102v50q0 26 -24 43v-152q53 -9 89.5 -51t36.5 -96v-171zM213 106
q24 17 24 44v162q0 33 -24 43v-249zM162 614q-25 -16 -25 -43v-57q0 -28 25 -44v144z" />
    <glyph glyph-name="percent" unicode="%" horiz-adv-x="601" 
d="M443 710l-204 -710h-80l204 710h80zM155 432v174q0 10 -6.5 18t-19.5 8q-11 0 -18.5 -8t-7.5 -18v-174q0 -13 6 -20.5t20 -7.5t20 7t6 21zM231 428q0 -43 -30.5 -71.5t-71.5 -28.5q-39 0 -70.5 28.5t-31.5 71.5v181q0 41 30.5 70t71.5 29q40 0 71 -29t31 -69v-182z
M501 93v174q0 10 -6.5 18t-19.5 8q-11 0 -18.5 -8t-7.5 -18v-174q0 -13 6 -20.5t20 -7.5t20 7t6 21zM577 89q0 -43 -30.5 -71.5t-71.5 -28.5q-39 0 -70.5 28.5t-31.5 71.5v181q0 41 30.5 70t71.5 29q40 0 71 -29t31 -69v-182z" />
    <glyph glyph-name="ampersand" unicode="&#x26;" horiz-adv-x="432" 
d="M239 126l-75 144q-36 -55 -36 -98q0 -32 12 -56q15 -31 43 -31q29 0 56 41zM224 517q0 48 -33 48t-33 -56q0 -19 26 -93q40 65 40 101zM404 -1h-99l-25 55q-39 -60 -112 -60q-65 0 -101 57q-32 48 -32 116q0 102 83 184q-52 74 -52 160q0 62 30 102q34 44 94 44
q57 0 90 -39.5t33 -97.5q0 -91 -88 -179l71 -134l44 73l64 -51l-64 -99z" />
    <glyph glyph-name="quotesingle" unicode="'" horiz-adv-x="161" 
d="M43 712h80v-176h-80v176z" />
    <glyph glyph-name="parenleft" unicode="(" horiz-adv-x="218" 
d="M184 -102h-42q-102 179 -102 407q0 229 102 413h42q-44 -202 -44 -405t44 -415z" />
    <glyph glyph-name="parenright" unicode=")" horiz-adv-x="216" 
d="M31 -102q42 204 42 415t-42 405h42q102 -183 102 -413q0 -229 -102 -407h-42z" />
    <glyph glyph-name="asterisk" unicode="*" horiz-adv-x="375" 
d="M59 656l98 -60l-4 116h64l-4 -116l98 60l28 -52l-100 -56l100 -55l-28 -53l-98 60l4 -116h-64l4 116l-98 -60l-28 53l100 55l-100 56z" />
    <glyph glyph-name="plus" unicode="+" horiz-adv-x="444" 
d="M182 466h80v-193h183v-80h-183v-193h-80v193h-183v80h183v193z" />
    <glyph glyph-name="comma" unicode="," horiz-adv-x="179" 
d="M42 102h102v-102l-102 -74v176z" />
    <glyph glyph-name="hyphen" unicode="-" horiz-adv-x="385" 
d="M44 308h301v-102h-301v102z" />
    <glyph glyph-name="hyphen" unicode="&#x2010;" horiz-adv-x="385" 
d="M44 308h301v-102h-301v102z" />
    <glyph glyph-name="period" unicode="." horiz-adv-x="181" 
d="M42 102h102v-102h-102v102z" />
    <glyph glyph-name="slash" unicode="/" horiz-adv-x="264" 
d="M148 709h104l-130 -709h-104z" />
    <glyph glyph-name="zero" unicode="0" horiz-adv-x="377" 
d="M238 569q0 18 -14.5 34t-34.5 16q-21 0 -36.5 -14.5t-15.5 -35.5v-424q0 -23 12 -39t39 -16q29 0 39.5 17.5t10.5 37.5v424zM340 135q0 -65 -43.5 -105.5t-107.5 -40.5q-60 0 -106.5 40t-46.5 106v434q0 66 44 109t109 43q59 0 105 -47t46 -105v-434z" />
    <glyph glyph-name="one" unicode="1" horiz-adv-x="312" 
d="M241 0h-101v566l-69 -26v109q39 15 46 19q23 14 23 41h101v-709z" />
    <glyph glyph-name="two" unicode="2" horiz-adv-x="332" 
d="M301 -2h-272v97l170 477q5 17 -4.5 29.5t-29.5 11.5q-14 0 -24.5 -10.5t-10.5 -24.5h-101q0 57 39.5 96.5t96.5 39.5q62 0 98 -39t36 -96q0 -29 -10 -58l-151 -422h163v-101z" />
    <glyph glyph-name="three" unicode="3" horiz-adv-x="338" 
d="M301 119q0 -52 -40 -91t-92 -39q-54 0 -94.5 37.5t-45.5 97.5h102q0 -34 34 -34t34 34v142q0 16 -12.5 24t-55.5 8v104q41 0 54.5 7t13.5 27v149q0 34 -36 34q-16 0 -24 -10t-8 -24h-102q0 57 40 96.5t96 39.5q54 0 95 -38t41 -92v-161q0 -43 -30 -79q30 -38 30 -80v-152
z" />
    <glyph glyph-name="four" unicode="4" horiz-adv-x="375" 
d="M196 211v275q-6 0 -95 -275h95zM347 102h-49v-102h-102v102h-170v109l167 498h105v-498h49v-109z" />
    <glyph glyph-name="five" unicode="5" horiz-adv-x="343" 
d="M304 120q0 -51 -40.5 -91t-91.5 -40q-58 0 -99 38.5t-41 97.5h101q0 -14 10.5 -24t24.5 -10t24 10t10 24v238q-3 34 -34 34q-14 0 -24.5 -8.5t-10.5 -25.5h-101v346h272v-101h-171v-114q18 5 35 5q54 0 95 -38.5t41 -92.5v-248z" />
    <glyph glyph-name="six" unicode="6" 
d="M210 347q0 14 -10 24t-24 10t-24 -10t-10 -24v-223q0 -14 10 -24t24 -10t24 10t10 24v223zM320 708l-115 -228q44 -9 75.5 -46t31.5 -82v-233q0 -50 -36.5 -90t-100.5 -40h1q-67 -1 -101 42t-35 88v228q0 30 15 62l152 300h113v-1z" />
    <glyph glyph-name="seven" unicode="7" horiz-adv-x="339" 
d="M304 606l-171 -606h-106l172 608h-65v-33h-101v134h271v-103z" />
    <glyph glyph-name="eight" unicode="8" horiz-adv-x="348" 
d="M207 124v150q0 15 -10.5 24.5t-24.5 9.5t-24 -10.5t-10 -23.5v-150q0 -12 9 -23t25 -11q17 0 26 11t9 23zM207 585q0 14 -9.5 24t-25.5 10q-14 0 -24 -10t-10 -24v-141q0 -15 10.5 -24.5t23.5 -9.5q16 0 25.5 9.5t9.5 24.5v141zM309 124q0 -56 -40 -95.5t-97 -39.5
q-58 0 -96.5 40.5t-38.5 94.5v150q0 49 30 85q-30 36 -30 85v141q0 57 39.5 96.5t96.5 39.5q59 0 97.5 -38.5t38.5 -97.5v-147q0 -44 -30 -79q30 -37 30 -80v-155z" />
    <glyph glyph-name="nine" unicode="9" horiz-adv-x="342" 
d="M137 362q0 -14 10 -24t24 -10t24 10t10 24v223q0 14 -10 24t-24 10t-24 -10t-10 -24v-223zM27 1l115 228q-44 9 -75.5 46t-31.5 82v233q0 50 36.5 90t100.5 40h-1q67 1 101 -42t35 -88v-228q0 -30 -15 -62l-152 -300h-113v1z" />
    <glyph glyph-name="colon" unicode=":" horiz-adv-x="175" 
d="M42 494h102v-102h-102v102zM42 102h102v-102h-102v102z" />
    <glyph glyph-name="semicolon" unicode=";" horiz-adv-x="175" 
d="M42 102h102v-102l-102 -74v176zM42 494h102v-102h-102v102z" />
    <glyph glyph-name="less" unicode="&#x3c;" horiz-adv-x="377" 
d="M343 388l-177 -135l177 -134v-127l-306 231v60l306 231v-126z" />
    <glyph glyph-name="equal" unicode="=" horiz-adv-x="468" 
d="M41 195h386v-102h-386v102zM41 373h386v-101h-386v101z" />
    <glyph glyph-name="greater" unicode="&#x3e;" horiz-adv-x="380" 
d="M46 514l306 -231v-60l-306 -231v127l177 134l-177 135v126z" />
    <glyph glyph-name="question" unicode="?" horiz-adv-x="332" 
d="M301 435q0 -39 -22 -67q-9 -12 -41 -39q-22 -16 -22 -32v-73h-101v76q0 36 13 55t49 46q22 18 22 34v150q0 34 -35 34q-14 0 -23.5 -10.5t-9.5 -23.5v-34h-102v34q1 57 39.5 96.5t95.5 39.5q58 0 97.5 -38.5t39.5 -92.5v-155zM216 0h-101v101h101v-101z" />
    <glyph glyph-name="at" unicode="@" horiz-adv-x="617" 
d="M329 138q-63 0 -105 35.5t-42 98.5q0 58 39 95.5t94 37.5q15 0 38 -5v30q0 53 -40 53q-35 0 -39 -34h-92q2 53 40 90t91 37q52 0 91.5 -37t39.5 -90v-171q53 67 53 145q0 82 -48 140q-52 65 -137 65q-75 0 -128 -54.5t-53 -130.5v-171q0 -76 53.5 -129.5t128.5 -53.5
q91 0 169 49q60 38 101 97q-16 -102 -88 -169q-74 -70 -175 -70q-110 0 -195 80t-85 190v184q0 112 81 191t192 79q114 0 193.5 -80.5t79.5 -195.5q0 -145 -85 -232q-74 -74 -172 -74zM315 312q-38 0 -38 -39q0 -40 38 -40q40 0 40 39q0 40 -40 40z" />
    <glyph glyph-name="A" unicode="A" horiz-adv-x="367" 
d="M216 253l-30 284l-30 -284h60zM344 0h-102l-16 151h-81l-15 -151h-103l108 709h102z" />
    <glyph glyph-name="B" unicode="B" horiz-adv-x="380" 
d="M243 152v101q0 20 -15 35.5t-35 15.5h-51v-203h51q20 0 35 15t15 36zM243 456v101q0 19 -13 34.5t-31 15.5h-57v-201h52q20 0 34.5 15t14.5 35zM344 543v-105q0 -34 -41 -83h1q40 -45 40 -84v-138q0 -57 -46 -95t-105 -38h-152v709h163q68 0 106 -51q34 -46 34 -115z" />
    <glyph glyph-name="C" unicode="C" horiz-adv-x="374" 
d="M343 139q0 -62 -41 -106t-110 -44q-67 0 -109 42t-42 110v423q0 66 43 111.5t108 45.5q72 0 113 -46q38 -43 38 -111v-46h-100v46q0 22 -12.5 38.5t-38.5 16.5q-20 0 -34.5 -17t-14.5 -38v-423q0 -22 12.5 -36.5t36.5 -14.5q22 0 36.5 14.5t14.5 36.5v50h100v-52z" />
    <glyph glyph-name="D" unicode="D" horiz-adv-x="384" 
d="M243 152v405q0 20 -13.5 35t-32.5 15h-55v-506h50q21 0 36 15t15 36zM344 152q0 -64 -45 -108t-107 -44h-152v709h163q57 0 99 -47t42 -105v-405z" />
    <glyph glyph-name="E" unicode="E" horiz-adv-x="378" 
d="M345 0h-304v709h304v-102h-203v-151h175v-101h-175v-254h203v-101z" />
    <glyph glyph-name="F" unicode="F" horiz-adv-x="373" 
d="M344 607h-203v-151h175v-101h-175v-355h-101v709h304v-102z" />
    <glyph glyph-name="G" unicode="G" horiz-adv-x="383" 
d="M343 135q0 -55 -36 -100.5t-119 -45.5q-67 0 -107.5 41.5t-40.5 110.5v428q0 63 43 107.5t105 44.5t108.5 -43t46.5 -104v-56h-102v51q0 21 -14.5 35.5t-38.5 14.5q-21 0 -34 -14.5t-13 -35.5v-428q0 -22 13 -36.5t34 -14.5q26 0 39.5 15t13.5 36v190h-53v101h155v-297z
" />
    <glyph glyph-name="H" unicode="H" horiz-adv-x="385" 
d="M344 0h-101v355h-101v-355h-102v709h102v-253h101v253h101v-709z" />
    <glyph glyph-name="I" unicode="I" horiz-adv-x="181" 
d="M142 0h-102v709h102v-709z" />
    <glyph glyph-name="J" unicode="J" horiz-adv-x="370" 
d="M329 132q0 -67 -42.5 -106.5t-107.5 -39.5q-67 0 -110.5 44.5t-43.5 106.5v51h101v-51q0 -21 13.5 -35.5t37.5 -14.5q23 0 36.5 14.5t13.5 35.5v572h102v-577z" />
    <glyph glyph-name="K" unicode="K" horiz-adv-x="373" 
d="M347 0h-105l-83 279l-20 -44v-235h-101v709h101v-248l97 248h110l-124 -311z" />
    <glyph glyph-name="L" unicode="L" horiz-adv-x="377" 
d="M345 0h-304v709h101v-608h203v-101z" />
    <glyph glyph-name="M" unicode="M" horiz-adv-x="586" 
d="M546 0h-102v569q0 21 -13.5 35.5t-36.5 14.5q-21 0 -35.5 -14.5t-14.5 -35.5v-569h-102v569q0 21 -14.5 35.5t-35.5 14.5t-35.5 -14.5t-14.5 -35.5v-569h-102v569q0 66 43.5 109t108.5 43q59 0 101 -39q43 39 101 39q59 0 105.5 -44.5t46.5 -102.5v-574z" />
    <glyph glyph-name="N" unicode="N" horiz-adv-x="381" 
d="M342 0h-101v569q0 21 -15 35.5t-36 14.5t-35.5 -14.5t-14.5 -35.5v-569h-101v569q0 66 43 109t108 43q60 0 106 -44.5t46 -102.5v-574z" />
    <glyph glyph-name="O" unicode="O" horiz-adv-x="381" 
d="M240 569q0 18 -14.5 34t-34.5 16q-21 0 -36.5 -14.5t-15.5 -35.5v-424q0 -23 12 -39t39 -16q29 0 39.5 17.5t10.5 37.5v424zM342 135q0 -65 -43.5 -105.5t-107.5 -40.5q-60 0 -106.5 40t-46.5 106v434q0 66 44 109t109 43q59 0 105 -47t46 -105v-434z" />
    <glyph glyph-name="P" unicode="P" horiz-adv-x="380" 
d="M244 405v153q0 22 -14.5 36t-36.5 14h-50v-253h50q21 0 36 14.5t15 35.5zM346 401q0 -63 -45 -105.5t-110 -42.5h-48v-253h-101v709h155q60 0 104.5 -44.5t44.5 -104.5v-159z" />
    <glyph glyph-name="Q" unicode="Q" horiz-adv-x="383" 
d="M191 81q23 0 36.5 13.5t13.5 36.5v439q0 21 -14.5 35.5t-35.5 14.5t-36 -14.5t-15 -35.5v-439q0 -22 14 -36t37 -14zM343 128q0 -44 -29.5 -83.5t-70.5 -55.5v-64h-102v64q-43 11 -72.5 51.5t-29.5 87.5v442q0 66 44.5 108.5t110.5 42.5q58 0 103.5 -46t45.5 -105v-442z
" />
    <glyph glyph-name="R" unicode="R" horiz-adv-x="374" 
d="M351 0h-104l-57 253h-48v-253h-101v709h155q60 0 104.5 -44.5t44.5 -104.5v-159q0 -69 -59 -116zM243 405v153q0 22 -14.5 36t-36.5 14h-50v-253h50q21 0 36 14.5t15 35.5z" />
    <glyph glyph-name="S" unicode="S" horiz-adv-x="378" 
d="M338 135q0 -55 -38 -100.5t-115 -45.5q-68 0 -109.5 42t-41.5 110v50h102v-50q0 -22 14 -36t35 -14t36 14.5t15 35.5v169q0 20 -15.5 35t-35.5 15q-66 0 -108.5 46.5t-42.5 112.5v50q0 66 42.5 109t108.5 43q59 0 106 -44.5t47 -102.5v-55h-102v50q0 21 -15 35.5
t-36 14.5t-35 -14.5t-14 -35.5v-57q0 -21 14 -35.5t35 -14.5q60 0 106.5 -45t46.5 -104v-178z" />
    <glyph glyph-name="T" unicode="T" horiz-adv-x="367" 
d="M335 607h-102v-607h-101v607h-101v102h304v-102z" />
    <glyph glyph-name="U" unicode="U" horiz-adv-x="385" 
d="M344 135q0 -59 -46.5 -102.5t-105.5 -43.5q-63 0 -107.5 45t-44.5 101v574h102v-574q0 -20 14.5 -32.5t35.5 -12.5t35.5 12.5t14.5 32.5v574h102v-574z" />
    <glyph glyph-name="V" unicode="V" horiz-adv-x="359" 
d="M336 709l-107 -709h-103l-107 709h102l23 -262q25 -264 34 -276q16 18 56 538h102z" />
    <glyph glyph-name="W" unicode="W" horiz-adv-x="585" 
d="M546 136q0 -58 -46.5 -102.5t-105.5 -44.5q-58 0 -101 39q-42 -39 -101 -39q-65 0 -108.5 43t-43.5 109v569h102v-569q0 -21 14.5 -35.5t35.5 -14.5t35.5 14.5t14.5 35.5v569h102v-569q0 -21 14.5 -35.5t35.5 -14.5q23 0 36.5 14.5t13.5 35.5v569h102v-574z" />
    <glyph glyph-name="X" unicode="X" horiz-adv-x="347" 
d="M332 709l-93 -355l93 -354h-105l-53 239l-52 -239h-105l93 354l-93 355h105l52 -241l53 241h105z" />
    <glyph glyph-name="Y" unicode="Y" horiz-adv-x="348" 
d="M332 709l-108 -384v-325h-101v325l-107 384h105l53 -271l52 271h106z" />
    <glyph glyph-name="Z" unicode="Z" horiz-adv-x="360" 
d="M340 709l-180 -607h174v-102h-309l180 607h-175v102h310z" />
    <glyph glyph-name="bracketleft" unicode="[" horiz-adv-x="210" 
d="M209 -106h-148v820h148v-79h-55v-662h55v-79z" />
    <glyph glyph-name="backslash" unicode="\" horiz-adv-x="228" 
d="M216 0h-80l-129 709h80z" />
    <glyph glyph-name="bracketright" unicode="]" horiz-adv-x="171" 
d="M11 -106v79h55v662h-55v79h148v-820h-148z" />
    <glyph glyph-name="asciicircum" unicode="^" horiz-adv-x="531" 
d="M232 712h66l228 -306h-126l-135 177l-135 -177l-126 -1z" />
    <glyph glyph-name="underscore" unicode="_" horiz-adv-x="501" 
d="M0 -23h500v-102h-500v102z" />
    <glyph glyph-name="grave" unicode="`" horiz-adv-x="201" 
d="M200 574h-66l-132 141h108z" />
    <glyph glyph-name="a" unicode="a" horiz-adv-x="329" 
d="M298 0h-102v19q-12 -24 -45 -30q-59 -9 -92 28t-33 108v65q0 57 39 100t97 36q21 -3 34 -15v59q0 14 -10 24t-24 10t-24 -10t-10 -24h-102q0 56 40 95.5t96 39.5q54 0 95 -38t41 -92v-375zM196 120v70q0 34 -34 34t-34 -34v-65q0 -34 34 -34q31 0 34 29z" />
    <glyph glyph-name="b" unicode="b" 
d="M142 0h-102v711h102v-222q13 11 32 13q56 6 97 -35t41 -100v-235q1 -75 -35 -113.5t-90 -25.5q-36 11 -45 28v-21zM210 122v245q0 33 -34 33q-32 0 -34 -28v-255q2 -29 34 -29q34 0 34 34z" />
    <glyph glyph-name="c" unicode="c" horiz-adv-x="337" 
d="M141 123q0 -34 33 -34q15 0 25 9.5t10 24.5h102q0 -64 -40.5 -99t-96.5 -35q-55 0 -95 35t-40 99v249q0 63 40 98t95 35q56 0 96.5 -35.5t40.5 -97.5h-102q0 35 -35 35q-33 0 -33 -35v-249z" />
    <glyph glyph-name="d" unicode="d" horiz-adv-x="353" 
d="M210 20q-9 -17 -45 -28q-54 -13 -90 25.5t-35 113.5v235q0 59 41 100t97 35q19 -2 32 -13v222h102v-710h-102v20zM142 121q0 -34 34 -34q32 0 34 29v255q-2 28 -34 28q-34 0 -34 -33v-245z" />
    <glyph glyph-name="e" unicode="e" 
d="M40 373q0 57 38 94.5t97 37.5q54 0 95.5 -38.5t41.5 -91.5v-189h-171v-61q0 -34 34 -34q35 0 35 34h102q0 -59 -39 -97.5t-98 -38.5q-58 0 -96.5 37.5t-38.5 94.5v252zM210 287v83q0 14 -10.5 24t-24.5 10t-24 -10t-10 -24v-83h69z" />
    <glyph glyph-name="f" unicode="f" horiz-adv-x="304" 
d="M278 392h-91v-392h-102v392h-59v102h59v43v41q1 57 41.5 94t94.5 37h57v-101h-57q-15 -1 -24.5 -9.5t-9.5 -21.5v-83h91v-102z" />
    <glyph glyph-name="g" unicode="g" horiz-adv-x="355" 
d="M211 101v271q0 34 -34 34t-34 -33v-1v-236q0 -35 34 -35h34zM313 -87q0 -60 -42 -95q-37 -31 -91 -31q-56 0 -95 33q-44 38 -44 101h102q0 -34 34 -34t34 34v79h-39q-51 0 -91 39.5t-40 90.5v242q0 62 44 99q39 34 94 34t92 -33q42 -37 42 -100v-459z" />
    <glyph glyph-name="h" unicode="h" horiz-adv-x="347" 
d="M311 0h-101v358q0 34 -34 34h-35v-392h-101v709h101v-215h40q51 0 90.5 -40t39.5 -91v-363z" />
    <glyph glyph-name="i" unicode="i" horiz-adv-x="182" 
d="M142 0h-102v494h102v-494zM142 608h-102v101h102v-101z" />
    <glyph glyph-name="j" unicode="j" horiz-adv-x="185" 
d="M145 606h-101v101h101v-101zM145 -82q0 -51 -40 -90.5t-90 -39.5h-40v101h30q13 0 25.5 10.5t12.5 23.5v180q1 129 1 391h101v-576z" />
    <glyph glyph-name="k" unicode="k" 
d="M342 0h-108l-93 194l-1 -194h-101v709h101v-337l84 122h116l-132 -192z" />
    <glyph glyph-name="l" unicode="l" horiz-adv-x="221" 
d="M191 -11q-61 0 -105.5 34.5t-44.5 95.5v590h101l1 -585q0 -34 48 -34v-101z" />
    <glyph glyph-name="m" unicode="m" horiz-adv-x="526" 
d="M43 373q0 58 38 95t97 37q48 0 86 -30q37 30 84 30h1q54 0 95 -36.5t40 -93.5v-375h-101v370q0 14 -10 24t-25 10q-17 0 -25.5 -10t-8.5 -24v-370h-101v370q0 14 -10.5 24t-24.5 10t-24 -10t-10 -24v-370h-102z" />
    <glyph glyph-name="n" unicode="n" horiz-adv-x="360" 
d="M318 0h-102v363q0 14 -10 24t-25 10q-16 0 -24.5 -10t-8.5 -24v-363h-102v366q0 54 41 93t95 39t95 -38.5t41 -91.5v-368z" />
    <glyph glyph-name="o" unicode="o" 
d="M210 125v244q0 12 -8.5 23t-25.5 11q-13 0 -23.5 -10t-10.5 -24v-244q0 -14 8.5 -24.5t25.5 -9.5q20 0 27 10t7 24zM312 120q0 -56 -39.5 -93.5t-96.5 -37.5q-51 0 -93.5 40.5t-42.5 92.5v250q0 55 41.5 94t94.5 39q55 0 95.5 -38.5t40.5 -91.5v-255z" />
    <glyph glyph-name="p" unicode="p" 
d="M142 471q9 17 45 28q54 13 90 -25.5t35 -113.5v-235q0 -59 -41 -100t-97 -35q-19 2 -32 13v-217h-102v708h102v-23zM210 370q0 34 -34 34q-32 0 -34 -29v-255q2 -28 34 -28q34 0 34 33v245z" />
    <glyph glyph-name="q" unicode="q" horiz-adv-x="355" 
d="M211 494h102v-708h-102v217q-13 -11 -32 -13q-56 -6 -97 35t-41 100v235q-1 75 35 113.5t90 25.5q36 -11 45 -28v23zM143 370v-245q0 -33 34 -33q32 0 34 28v255q-2 29 -34 29q-34 0 -34 -34z" />
    <glyph glyph-name="r" unicode="r" horiz-adv-x="282" 
d="M244 393h-57q-19 0 -32 -15.5t-13 -35.5v-342h-101v342q0 61 43 106.5t103 45.5h57v-101z" />
    <glyph glyph-name="s" unicode="s" horiz-adv-x="344" 
d="M305 119q0 -56 -40.5 -93t-96.5 -37q-54 0 -94.5 41t-40.5 94h101q0 -34 34 -34q14 0 24.5 10t10.5 24v75q0 34 -35 34q-57 2 -96 41t-39 95q0 57 39.5 96.5t95.5 39.5q54 0 95.5 -38.5t41.5 -91.5v-6h-102q0 34 -35 34q-13 0 -23.5 -10t-10.5 -24q0 -31 34 -34
q54 0 95.5 -38t41.5 -92v-86z" />
    <glyph glyph-name="t" unicode="t" horiz-adv-x="302" 
d="M265 -11h-41q-54 0 -93 41t-39 95v268h-59v101h59v174h102v-174h71v-101h-71v-268q0 -34 30 -34h41v-102z" />
    <glyph glyph-name="u" unicode="u" horiz-adv-x="354" 
d="M313 122q0 -54 -41 -93.5t-95 -39.5t-95 39t-41 92v374h102v-369q0 -14 10 -24t24 -10t24 10.5t10 23.5v369h102v-372z" />
    <glyph glyph-name="v" unicode="v" horiz-adv-x="295" 
d="M192 0h-90l-92 494h98l38 -341l40 341h98z" />
    <glyph glyph-name="w" unicode="w" horiz-adv-x="523" 
d="M40 494h102v-370q0 -14 10 -24t24 -10t24.5 10t10.5 24v370h101v-370q0 -14 8.5 -24t25.5 -10q15 0 25 10t10 24v370h101v-375q1 -57 -40 -93.5t-95 -36.5h-1q-47 0 -84 30q-38 -30 -86 -30q-59 0 -97 37t-38 95z" />
    <glyph glyph-name="x" unicode="x" horiz-adv-x="324" 
d="M314 0h-108l-44 155l-43 -155h-108l86 246l-85 248h107l43 -156l44 156h107l-85 -248z" />
    <glyph glyph-name="y" unicode="y" horiz-adv-x="348" 
d="M172 -213h-136v102h136q14 0 24 10t10 24v77h-40q-51 0 -90.5 39.5t-39.5 90.5v364h102v-359q0 -34 34 -34h34v393h102l-1 -571q0 -57 -39 -96.5t-96 -39.5z" />
    <glyph glyph-name="z" unicode="z" horiz-adv-x="320" 
d="M301 494l-139 -392h134v-102h-277l139 393h-133v101h276z" />
    <glyph glyph-name="braceleft" unicode="{" horiz-adv-x="231" 
d="M211 -102h-55q-44 0 -69 39q-21 33 -21 80v149q0 105 -55 105v78q55 0 55 100v150q0 48 21 80q24 39 69 39h55v-79q-34 0 -43.5 -9t-9.5 -45v-149q0 -39 -10 -74q-15 -49 -42 -54q27 -4 42 -53q10 -35 10 -75v-147q0 -35 7 -44q9 -12 46 -12v-79z" />
    <glyph glyph-name="bar" unicode="|" horiz-adv-x="181" 
d="M41 750h101v-1000h-101v1000z" />
    <glyph glyph-name="braceright" unicode="}" horiz-adv-x="226" 
d="M8 -23q37 0 46 12q7 9 7 44v147q0 40 10 75q15 49 42 53q-27 5 -42 54q-10 35 -10 74v149q0 36 -9.5 45t-43.5 9v79h55q45 0 69 -39q21 -32 21 -80v-150q0 -100 55 -100v-78q-55 0 -55 -105v-149q0 -47 -21 -80q-25 -39 -69 -39h-55v79z" />
    <glyph glyph-name="asciitilde" unicode="~" horiz-adv-x="423" 
d="M420 265q-39 -86 -106 -86q-40 0 -105 32q-74 36 -95 36q-33 0 -77 -71l-32 64q40 86 106 86q40 0 105 -31q72 -36 95 -36q36 0 77 71z" />
    <glyph glyph-name="exclamdown" unicode="&#xa1;" horiz-adv-x="182" 
d="M142 436h-102v102h102v-102zM40 -171l22 490h58l22 -490h-102z" />
    <glyph glyph-name="cent" unicode="&#xa2;" horiz-adv-x="310" 
d="M205 -90h-41v678h41v-678zM149 130q0 -34 34 -34t34 34h102q0 -58 -40.5 -97t-98.5 -39q-54 0 -93.5 40.5t-39.5 95.5v235q0 63 43 100q38 34 93 34t94 -34q42 -37 42 -100h-102q0 32 -32 32q-36 0 -36 -32v-235z" />
    <glyph glyph-name="sterling" unicode="&#xa3;" horiz-adv-x="429" 
d="M380 -1h-272v288h-68v101h68l1 192q0 58 39 97t97 39h2q58 -1 95.5 -43t37.5 -101v-26h-101v19q0 49 -32 49q-37 0 -37 -34v-192h101v-101h-101v-187h170v-101z" />
    <glyph glyph-name="currency" unicode="&#xa4;" horiz-adv-x="424" 
d="M70 256q-35 37 -35 100q0 62 34 100l-41 42l41 41l41 -42q39 34 100 34q63 0 101 -34l41 42l40 -41l-41 -41q34 -39 34 -101t-34 -100l41 -41l-41 -41l-41 41q-37 -34 -100 -34t-100 35l-41 -42l-41 40zM210 247q45 0 77 32t32 77t-32 77t-77 32t-77 -32t-32 -77t32 -77
t77 -32z" />
    <glyph glyph-name="yen" unicode="&#xa5;" horiz-adv-x="398" 
d="M152 172h-114v66h114v49h-114v66h98l-118 359h102l79 -283l81 283h102l-118 -359h98v-66h-114v-49h114v-66h-114v-172h-96v172z" />
    <glyph glyph-name="brokenbar" unicode="&#xa6;" horiz-adv-x="166" 
d="M42 675h80v-350h-80v350zM42 175h80v-350h-80v350z" />
    <glyph glyph-name="section" unicode="&#xa7;" horiz-adv-x="384" 
d="M144 213q0 -22 14 -37.5t36 -15.5t36 15.5t14 37.5v99q0 21 -14.5 37t-35.5 16q-22 0 -36 -15.5t-14 -37.5v-99zM334 535h-85v42q0 25 -13 43t-37 18q-52 0 -52 -73q0 -36 8 -50t39 -34l97 -63q39 -26 50 -70q5 -22 5 -89q0 -73 -12 -99q-16 -35 -75 -62q49 -25 63 -56
q12 -25 12 -85q0 -79 -26 -116q-37 -52 -113 -52q-65 0 -104 39t-39 104v42h85v-41q0 -26 15 -45t40 -19q57 0 57 78q0 32 -4 45q-6 20 -28 33l-118 72q-40 25 -51 71q-6 23 -6 91q0 77 12 107q19 45 80 64q-47 23 -61 53q-11 24 -11 81q0 68 34 109q37 45 103 45
q60 0 97.5 -38.5t37.5 -98.5v-46z" />
    <glyph glyph-name="dieresis" unicode="&#xa8;" horiz-adv-x="325" 
d="M201 688h90v-102h-90v102zM39 688h90v-102h-90v102z" />
    <glyph glyph-name="copyright" unicode="&#xa9;" horiz-adv-x="802" 
d="M583 287q-12 -70 -61.5 -113t-117.5 -43q-97 0 -155.5 64t-58.5 161q0 100 56 163t155 63q72 0 124.5 -41t58.5 -110h-69q-8 38 -40.5 61.5t-72.5 23.5q-65 0 -102.5 -45.5t-37.5 -112.5q0 -66 37 -112q40 -49 105 -49q41 0 72.5 25t38.5 65h68zM400 718
q151 0 256.5 -105.5t105.5 -256.5t-105.5 -256.5t-256.5 -105.5t-256.5 105.5t-105.5 256.5t105.5 256.5t256.5 105.5zM400 652q-122 0 -206 -87t-84 -209t84 -209t206 -87t206 87t84 209t-84 209t-206 87z" />
    <glyph glyph-name="ordfeminine" unicode="&#xaa;" horiz-adv-x="200" 
d="M98 346q-32 0 -53.5 20.5t-21.5 51.5v33q0 30 21.5 51.5t50.5 21.5q8 0 13 -2v14q0 12 -13 12q-12 0 -12 -17h-60q0 33 21 55.5t51 22.5q29 0 51 -20.5t22 -49.5v-123q0 -28 -21.5 -49t-48.5 -21zM108 451q0 12 -13 12q-12 0 -12 -12v-33q0 -12 12 -12q13 0 13 12v33z
" />
    <glyph glyph-name="guillemotleft" unicode="&#xab;" horiz-adv-x="457" 
d="M224 377l-101 -100l101 -100v-102l-203 202l203 202v-102zM409 377l-101 -100l101 -100v-102l-203 202l203 202v-102z" />
    <glyph glyph-name="logicalnot" unicode="&#xac;" horiz-adv-x="584" 
d="M462 313h-426v80h506v-280h-80v200z" />
    <glyph glyph-name="registered" unicode="&#xae;" horiz-adv-x="803" 
d="M263 567h160q145 0 145 -119q0 -105 -108 -118l121 -185h-80l-121 183h-51v-183h-66v422zM329 388h75q98 0 98 63q0 56 -77 56h-96v-119zM400 718q151 0 256.5 -105.5t105.5 -256.5t-105.5 -256.5t-256.5 -105.5t-256.5 105.5t-105.5 256.5t105.5 256.5t256.5 105.5z
M400 652q-122 0 -206 -87t-84 -209t84 -209t206 -87t206 87t84 209t-84 209t-206 87z" />
    <glyph glyph-name="overscore.001" unicode="&#xaf;" horiz-adv-x="504" 
d="M-1 293h506v-80h-506v80z" />
    <glyph glyph-name="degree" unicode="&#xb0;" horiz-adv-x="279" 
d="M136 718q47 0 79.5 -32.5t32.5 -79.5t-32.5 -79.5t-79.5 -32.5t-79.5 32.5t-32.5 79.5t32.5 79.5t79.5 32.5zM136 545q26 0 43.5 17.5t17.5 43.5t-17.5 43.5t-43.5 17.5t-43.5 -17.5t-17.5 -43.5t17.5 -43.5t43.5 -17.5z" />
    <glyph glyph-name="plusminus" unicode="&#xb1;" horiz-adv-x="589" 
d="M41 80h506v-80h-506v80zM254 265h-213v80h213v161h80v-161h213v-80h-213v-161h-80v161z" />
    <glyph glyph-name="twosuperior" unicode="&#xb2;" horiz-adv-x="157" 
d="M0 363v67l86 216q-1 8 -8 8t-7 -16h-70q0 37 22 60t55 23q74 0 74 -75q-8 -40 -34 -108l-42 -108h80v-67h-156z" />
    <glyph glyph-name="threesuperior" unicode="&#xb3;" horiz-adv-x="181" 
d="M95 361q-34 0 -57 22.5t-23 60.5h71q-1 -16 7 -16q7 0 7 6v68q0 6 -5 7.5t-29 1.5v64q24 0 29 1t5 6v67q0 7 -8 7q-7 0 -6 -16h-71q0 37 22.5 60t55.5 23q31 0 54.5 -21t23.5 -50v-73q0 -19 -13 -37q13 -18 13 -38v-72q0 -28 -23 -49.5t-53 -21.5z" />
    <glyph glyph-name="acute" unicode="&#xb4;" horiz-adv-x="200" 
d="M90 715h108l-132 -141h-66z" />
    <glyph glyph-name="mu1" unicode="&#xb5;" horiz-adv-x="387" 
d="M347 0h-102v49q-8 -60 -56 -60q-32 0 -45 15v-217h-102v707h102v-338q0 -60 50 -60q51 0 51 70v328h102v-494z" />
    <glyph glyph-name="mu1" unicode="&#x3bc;" horiz-adv-x="387" 
d="M347 0h-102v49q-8 -60 -56 -60q-32 0 -45 15v-217h-102v707h102v-338q0 -60 50 -60q51 0 51 70v328h102v-494z" />
    <glyph glyph-name="paragraph" unicode="&#xb6;" horiz-adv-x="455" 
d="M198 331q-72 0 -124 58q-50 55 -50 128q0 97 62 147q56 45 156 45h172v-923h-72v872h-72v-872h-72v545z" />
    <glyph glyph-name="periodcentered" unicode="&#xb7;" horiz-adv-x="209" 
d="M105 362q26 0 45 -19t19 -45t-19 -45t-45 -19t-45 19t-19 45t19 45t45 19z" />
    <glyph glyph-name="periodcentered" unicode="&#x2219;" horiz-adv-x="209" 
d="M105 362q26 0 45 -19t19 -45t-19 -45t-45 -19t-45 19t-19 45t19 45t45 19z" />
    <glyph glyph-name="cedilla" unicode="&#xb8;" horiz-adv-x="223" 
d="M1 -229v63q29 -3 50 -3q71 0 71 32q0 27 -46 28h-37v119h77v-60q42 0 74 -22.5t32 -60.5q0 -99 -167 -99q-27 0 -54 3z" />
    <glyph glyph-name="onesuperior" unicode="&#xb9;" horiz-adv-x="150" 
d="M119 354h-71v264l-34 -12v72q10 2 28 10q6 4 6 21h71v-355z" />
    <glyph glyph-name="ordmasculine" unicode="&#xba;" horiz-adv-x="271" 
d="M106 508q0 -34 30 -34t30 34v111q0 35 -30 35t-30 -35v-111zM34 621q0 46 28 72.5t74 26.5q45 0 73.5 -27t28.5 -72v-114q0 -46 -28 -72.5t-74 -26.5q-45 0 -73.5 27t-28.5 72v114z" />
    <glyph glyph-name="guillemotright" unicode="&#xbb;" horiz-adv-x="469" 
d="M42 177l101 100l-101 100v102l203 -202l-203 -202v102zM227 177l101 100l-101 100v102l203 -202l-203 -202v102z" />
    <glyph glyph-name="onequarter" unicode="&#xbc;" horiz-adv-x="457" 
d="M114 363h-71v264l-34 -12v72q10 2 28 10q6 4 6 21h71v-355zM443 718l-342 -724h-80l342 724h80zM421 43v-48h-71v48h-85v63l86 244h70v-236h24v-71h-24zM350 222l-29 -108h29v108z" />
    <glyph glyph-name="onehalf" unicode="&#xbd;" horiz-adv-x="429" 
d="M110 363h-71v264l-34 -12v72q10 2 28 10q6 4 6 21h71v-355zM427 718l-342 -724h-80l342 724h80zM270 -3v57l86 226q-1 8 -8 8t-7 -16h-70q0 37 22 60t55 23q74 0 74 -75q0 -52 -35 -136l-38 -80h77v-67h-156z" />
    <glyph glyph-name="threequarters" unicode="&#xbe;" horiz-adv-x="454" 
d="M443 718l-342 -724h-80l342 724h80zM445 43h-24v-48h-71v48h-85v63l86 244h70v-236h24v-71zM350 114v108l-29 -108h29zM93 361q-34 0 -57 22.5t-23 60.5h71q0 -16 7 -16t7 6v68q0 6 -15 8q-4 0 -19 1v61l29 3q5 2 5 7v67q0 7 -8 7q-6 0 -6 -16h-71q0 37 22.5 60t55.5 23
q31 0 54.5 -21t23.5 -50v-73q0 -19 -13 -37q13 -18 13 -38v-72q0 -28 -23 -49.5t-53 -21.5z" />
    <glyph glyph-name="questiondown" unicode="&#xbf;" horiz-adv-x="343" 
d="M40 111q0 39 22 67q9 12 41 39q23 18 23 32v73h101v-76q0 -37 -22 -64q-7 -9 -41 -37q-22 -19 -22 -34v0v-147v0q0 -34 36 -34q13 0 23 10.5t10 23.5v34h101v-34v0q0 -57 -39 -96.5t-95 -39.5q-54 0 -96 38.5t-42 92.5v152zM126 545h101v-101h-101v101z" />
    <glyph glyph-name="Agrave" unicode="&#xc0;" horiz-adv-x="364" 
d="M216 253l-30 284l-30 -284h60zM344 0h-102l-16 151h-81l-15 -151h-103l108 709h102zM220 756h-66l-132 141h108z" />
    <glyph glyph-name="Aacute" unicode="&#xc1;" horiz-adv-x="366" 
d="M216 253l-30 284l-30 -284h60zM344 0h-102l-16 151h-81l-15 -151h-103l108 709h102zM240 898h108l-132 -141h-66z" />
    <glyph glyph-name="Acircumflex" unicode="&#xc2;" horiz-adv-x="387" 
d="M216 253l-30 284l-30 -284h60zM344 0h-102l-16 151h-81l-15 -151h-103l108 709h102zM138 877h94l98 -141h-91l-50 68l-49 -68h-100z" />
    <glyph glyph-name="Atilde" unicode="&#xc3;" horiz-adv-x="369" 
d="M216 253l-30 284l-30 -284h60zM344 0h-102l-16 151h-81l-15 -151h-103l108 709h102zM321 893q-17 -111 -81 -111q-14 0 -59.5 20t-55.5 20q-35 0 -35 -45h-41q17 111 81 111q14 0 60 -20t55 -20q35 0 35 45h41z" />
    <glyph glyph-name="Adieresis" unicode="&#xc4;" horiz-adv-x="376" 
d="M216 253l-30 284l-30 -284h60zM344 0h-102l-16 151h-81l-15 -151h-103l108 709h102zM221 880h90v-102h-90v102zM59 880h90v-102h-90v102z" />
    <glyph glyph-name="Aring" unicode="&#xc5;" horiz-adv-x="374" 
d="M216 253l-30 284l-30 -284h60zM344 0h-102l-16 151h-81l-15 -151h-103l108 709h102zM185 756q-28 0 -47 19t-19 47t19 47t47 19t47 -19t19 -47t-19 -47t-47 -19zM185 843q-20 0 -20 -21q0 -20 20 -20q21 0 21 20q0 21 -21 21z" />
    <glyph glyph-name="AE" unicode="&#xc6;" horiz-adv-x="623" 
d="M289 616h-24l-92 -367h116v367zM204 712h389v-96h-202v-209h176v-96h-176v-209h202v-102h-304v153h-140l-39 -153h-108z" />
    <glyph glyph-name="Ccedilla" unicode="&#xc7;" horiz-adv-x="379" 
d="M345 139q0 -62 -41 -106t-110 -44q-67 0 -109 42t-42 110v423q0 66 43 111.5t108 45.5q72 0 113 -46q38 -43 38 -111v-46h-100v46q0 22 -12.5 38.5t-38.5 16.5q-20 0 -34.5 -17t-14.5 -38v-423q0 -22 12.5 -36.5t36.5 -14.5q22 0 36.5 14.5t14.5 36.5v50h100v-52z
M110 -225v63q29 -3 50 -3q71 0 71 32q0 27 -46 28h-37v119h77v-60q42 0 74 -22.5t32 -60.5q0 -99 -167 -99q-27 0 -54 3z" />
    <glyph glyph-name="Egrave" unicode="&#xc8;" horiz-adv-x="384" 
d="M345 0h-304v709h304v-102h-203v-151h175v-101h-175v-254h203v-101zM253 757h-66l-132 141h108z" />
    <glyph glyph-name="Eacute" unicode="&#xc9;" horiz-adv-x="382" 
d="M345 0h-304v709h304v-102h-203v-151h175v-101h-175v-254h203v-101zM215 898h108l-132 -141h-66z" />
    <glyph glyph-name="Ecircumflex" unicode="&#xca;" horiz-adv-x="390" 
d="M346 0h-304v709h304v-102h-203v-151h175v-101h-175v-254h203v-101zM145 877h94l98 -141h-91l-50 68l-49 -68h-100z" />
    <glyph glyph-name="Edieresis" unicode="&#xcb;" horiz-adv-x="389" 
d="M345 0h-304v709h304v-102h-203v-151h175v-101h-175v-254h203v-101zM227 880h90v-102h-90v102zM65 880h90v-102h-90v102z" />
    <glyph glyph-name="Igrave" unicode="&#xcc;" horiz-adv-x="182" 
d="M142 0h-102v709h102v-709zM127 757h-66l-132 141h108z" />
    <glyph glyph-name="Iacute" unicode="&#xcd;" horiz-adv-x="183" 
d="M142 0h-102v709h102v-709zM147 898h108l-132 -141h-66z" />
    <glyph glyph-name="Icircumflex" unicode="&#xce;" horiz-adv-x="185" 
d="M142 0h-102v709h102v-709zM44 877h94l98 -141h-91l-50 68l-49 -68h-100z" />
    <glyph glyph-name="Idieresis" unicode="&#xcf;" horiz-adv-x="182" 
d="M142 0h-102v709h102v-709zM131 880h90v-102h-90v102zM-31 880h90v-102h-90v102z" />
    <glyph glyph-name="Eth" unicode="&#xd0;" horiz-adv-x="421" 
d="M381 152q0 -64 -45 -108t-107 -44h-152v310h-51v86h51v313h163q57 0 99 -47t42 -105v-405zM226 396v-86h-47v-209l50 1q21 0 36 14.5t15 35.5v405q0 20 -13.5 34t-32.5 16h-55v-211h47z" />
    <glyph glyph-name="Ntilde" unicode="&#xd1;" horiz-adv-x="387" 
d="M345 0h-101v569q0 21 -15 35.5t-36 14.5t-35.5 -14.5t-14.5 -35.5v-569h-101v569q0 66 43 109t108 43q60 0 106 -44.5t46 -102.5v-574zM328 894q-17 -111 -81 -111q-14 0 -59.5 20t-55.5 20q-35 0 -35 -45h-41q17 111 81 111q14 0 60 -20t55 -20q35 0 35 45h41z" />
    <glyph glyph-name="Ograve" unicode="&#xd2;" horiz-adv-x="384" 
d="M242 569q0 18 -14.5 34t-34.5 16q-21 0 -36.5 -14.5t-15.5 -35.5v-424q0 -23 12 -39t39 -16q29 0 39.5 17.5t10.5 37.5v424zM344 135q0 -65 -43.5 -105.5t-107.5 -40.5q-60 0 -106.5 40t-46.5 106v434q0 66 44 109t109 43q59 0 105 -47t46 -105v-434zM226 756h-66
l-132 141h108z" />
    <glyph glyph-name="Oacute" unicode="&#xd3;" horiz-adv-x="385" 
d="M242 569q0 18 -14.5 34t-34.5 16q-21 0 -36.5 -14.5t-15.5 -35.5v-424q0 -23 12 -39t39 -16q29 0 39.5 17.5t10.5 37.5v424zM344 135q0 -65 -43.5 -105.5t-107.5 -40.5q-60 0 -106.5 40t-46.5 106v434q0 66 44 109t109 43q59 0 105 -47t46 -105v-434zM249 897h108
l-132 -141h-66z" />
    <glyph glyph-name="Ocircumflex" unicode="&#xd4;" horiz-adv-x="387" 
d="M244 569q0 18 -14.5 34t-34.5 16q-21 0 -36.5 -14.5t-15.5 -35.5v-424q0 -23 12 -39t39 -16q29 0 39.5 17.5t10.5 37.5v424zM346 135q0 -65 -43.5 -105.5t-107.5 -40.5q-60 0 -106.5 40t-46.5 106v434q0 66 44 109t109 43q59 0 105 -47t46 -105v-434zM146 899h94l98 -141
h-91l-50 68l-49 -68h-100z" />
    <glyph glyph-name="Otilde" unicode="&#xd5;" horiz-adv-x="386" 
d="M242 569q0 18 -14.5 34t-34.5 16q-21 0 -36.5 -14.5t-15.5 -35.5v-424q0 -23 12 -39t39 -16q29 0 39.5 17.5t10.5 37.5v424zM344 135q0 -65 -43.5 -105.5t-107.5 -40.5q-60 0 -106.5 40t-46.5 106v434q0 66 44 109t109 43q59 0 105 -47t46 -105v-434zM327 893
q-17 -111 -81 -111q-14 0 -59.5 20t-55.5 20q-35 0 -35 -45h-41q17 111 81 111q14 0 60 -20t55 -20q35 0 35 45h41z" />
    <glyph glyph-name="Odieresis" unicode="&#xd6;" horiz-adv-x="387" 
d="M244 569q0 18 -14.5 34t-34.5 16q-21 0 -36.5 -14.5t-15.5 -35.5v-424q0 -23 12 -39t39 -16q29 0 39.5 17.5t10.5 37.5v424zM346 135q0 -65 -43.5 -105.5t-107.5 -40.5q-60 0 -106.5 40t-46.5 106v434q0 66 44 109t109 43q59 0 105 -47t46 -105v-434zM228 880h90v-102
h-90v102zM66 880h90v-102h-90v102z" />
    <glyph glyph-name="Ugrave" unicode="&#xd9;" horiz-adv-x="384" 
d="M344 135q0 -59 -46.5 -102.5t-105.5 -43.5q-63 0 -107.5 45t-44.5 101v574h102v-574q0 -20 14.5 -32.5t35.5 -12.5t35.5 12.5t14.5 32.5v574h102v-574zM231 758h-66l-132 141h108z" />
    <glyph glyph-name="Uacute" unicode="&#xda;" horiz-adv-x="385" 
d="M345 135q0 -59 -46.5 -102.5t-105.5 -43.5q-63 0 -107.5 45t-44.5 101v574h102v-574q0 -20 14.5 -32.5t35.5 -12.5t35.5 12.5t14.5 32.5v574h102v-574zM244 900h108l-132 -141h-66z" />
    <glyph glyph-name="Ucircumflex" unicode="&#xdb;" horiz-adv-x="385" 
d="M345 135q0 -59 -46.5 -102.5t-105.5 -43.5q-63 0 -107.5 45t-44.5 101v574h102v-574q0 -20 14.5 -32.5t35.5 -12.5t35.5 12.5t14.5 32.5v574h102v-574zM147 899h94l98 -141h-91l-50 68l-49 -68h-100z" />
    <glyph glyph-name="Udieresis" unicode="&#xdc;" horiz-adv-x="385" 
d="M344 135q0 -59 -46.5 -102.5t-105.5 -43.5q-63 0 -107.5 45t-44.5 101v574h102v-574q0 -20 14.5 -32.5t35.5 -12.5t35.5 12.5t14.5 32.5v574h102v-574zM230 880h90v-102h-90v102zM68 880h90v-102h-90v102z" />
    <glyph glyph-name="Yacute" unicode="&#xdd;" horiz-adv-x="385" 
d="M345 135q0 -59 -46.5 -102.5t-105.5 -43.5q-63 0 -107.5 45t-44.5 101v574h102v-574q0 -20 14.5 -32.5t35.5 -12.5t35.5 12.5t14.5 32.5v574h102v-574zM232 758h-66l-132 141h108z" />
    <glyph glyph-name="Thorn" unicode="&#xde;" horiz-adv-x="411" 
d="M144 250h49q56 0 73 34q11 21 11 86q0 64 -10 86q-16 36 -70 36h-53v-242zM42 712h102v-124h51q84 0 131 -49t47 -168q0 -96 -31 -146q-43 -71 -146 -71h-52v-154h-102v712z" />
    <glyph glyph-name="germandbls" unicode="&#xdf;" horiz-adv-x="386" 
d="M42 552q0 74 39 120t112 46q154 0 154 -182q0 -50 -9 -72q-12 -28 -50 -52q59 -32 59 -102v-176q0 -76 -34.5 -108t-111.5 -32v96q26 0 35 11.5t9 39.5v190q0 33 -44 33v90q44 0 44 39v80q0 49 -48 49q-34 0 -46 -29q-7 -18 -7 -59v-534h-102v552z" />
    <glyph glyph-name="agrave" unicode="&#xe0;" horiz-adv-x="344" 
d="M303 0h-102v19q-12 -24 -45 -30q-59 -9 -92 28t-33 108v65q0 57 39 100t97 36q21 -3 34 -15v59q0 14 -10 24t-24 10t-24 -10t-10 -24h-102q0 56 40 95.5t96 39.5q54 0 95 -38t41 -92v-375zM201 120v70q0 34 -34 34t-34 -34v-65q0 -34 34 -34q31 0 34 29zM205 541h-66
l-132 141h108z" />
    <glyph glyph-name="aacute" unicode="&#xe1;" horiz-adv-x="350" 
d="M309 0h-102v19q-12 -24 -45 -30q-59 -9 -92 28t-33 108v65q0 57 39 100t97 36q21 -3 34 -15v59q0 14 -10 24t-24 10t-24 -10t-10 -24h-102q0 56 40 95.5t96 39.5q54 0 95 -38t41 -92v-375zM207 120v70q0 34 -34 34t-34 -34v-65q0 -34 34 -34q31 0 34 29zM231 681h108
l-132 -141h-66z" />
    <glyph glyph-name="acircumflex" unicode="&#xe2;" horiz-adv-x="349" 
d="M308 0h-102v19q-12 -24 -45 -30q-59 -9 -92 28t-33 108v65q0 57 39 100t97 36q21 -3 34 -15v59q0 14 -10 24t-24 10t-24 -10t-10 -24h-102q0 56 40 95.5t96 39.5q54 0 95 -38t41 -92v-375zM206 120v70q0 34 -34 34t-34 -34v-65q0 -34 34 -34q31 0 34 29zM124 682h94
l98 -141h-91l-50 68l-49 -68h-100z" />
    <glyph glyph-name="atilde" unicode="&#xe3;" horiz-adv-x="346" 
d="M305 0h-102v19q-12 -24 -45 -30q-59 -9 -92 28t-33 108v65q0 57 39 100t97 36q21 -3 34 -15v59q0 14 -10 24t-24 10t-24 -10t-10 -24h-102q0 56 40 95.5t96 39.5q54 0 95 -38t41 -92v-375zM203 120v70q0 34 -34 34t-34 -34v-65q0 -34 34 -34q31 0 34 29zM302 680
q-17 -111 -81 -111q-14 0 -59.5 20t-55.5 20q-35 0 -35 -45h-41q17 111 81 111q14 0 60 -20t55 -20q35 0 35 45h41z" />
    <glyph glyph-name="adieresis" unicode="&#xe4;" horiz-adv-x="348" 
d="M307 0h-102v19q-12 -24 -45 -30q-59 -9 -92 28t-33 108v65q0 57 39 100t97 36q21 -3 34 -15v59q0 14 -10 24t-24 10t-24 -10t-10 -24h-102q0 56 40 95.5t96 39.5q54 0 95 -38t41 -92v-375zM205 120v70q0 34 -34 34t-34 -34v-65q0 -34 34 -34q31 0 34 29zM210 666h90v-102
h-90v102zM48 666h90v-102h-90v102z" />
    <glyph glyph-name="aring" unicode="&#xe5;" horiz-adv-x="346" 
d="M306 0h-102v19q-12 -24 -45 -30q-59 -9 -92 28t-33 108v65q0 57 39 100t97 36q21 -3 34 -15v59q0 14 -10 24t-24 10t-24 -10t-10 -24h-102q0 56 40 95.5t96 39.5q54 0 95 -38t41 -92v-375zM204 120v70q0 34 -34 34t-34 -34v-65q0 -34 34 -34q31 0 34 29zM170 540
q-28 0 -47 19t-19 47t19 47t47 19t47 -19t19 -47t-19 -47t-47 -19zM170 627q-20 0 -20 -21q0 -20 20 -20q21 0 21 20q0 21 -21 21z" />
    <glyph glyph-name="ae" unicode="&#xe6;" horiz-adv-x="580" 
d="M235 218q-17 3 -28 3q-80 0 -80 -72q0 -65 53 -65q55 0 55 65v69zM539 215h-202v-69q0 -50 50 -50q45 0 50 51h102q0 -67 -42.5 -110t-109.5 -43q-97 0 -133 72q-36 -72 -119 -72q-110 0 -110 135q0 91 34 132t110 41q9 0 17 -1l49 -3v53q0 60 -51 60q-22 0 -38 -14.5
t-20 -36.5h-99q0 68 44.5 110.5t112.5 42.5q59 0 101 -36q41 36 102 36q69 0 110.5 -44t41.5 -114v-140zM337 295h100v58q0 58 -50 58t-50 -58v-58z" />
    <glyph glyph-name="ccedilla" unicode="&#xe7;" horiz-adv-x="375" 
d="M165 -4q-75 10 -105 66q-22 41 -22 108v167q0 67 23 111q17 31 55 49q35 16 74 16q71 0 111.5 -45t40.5 -117h-102q0 60 -50 60t-50 -58v-207q0 -50 50 -50q45 0 50 51h102q0 -61 -36 -102.5t-96 -48.5l-43 -56l31 2h8q37 0 57 -22.5t20 -52.5q0 -45 -40 -70
q-35 -21 -83 -21q-43 0 -93 19l17 42q42 -15 65 -15q54 0 54 41q0 17 -13.5 27.5t-31.5 10.5q-21 0 -39 -7l-17 20z" />
    <glyph glyph-name="egrave" unicode="&#xe8;" horiz-adv-x="354" 
d="M41 373q0 57 38 94.5t97 37.5q54 0 95.5 -38.5t41.5 -91.5v-189h-171v-61q0 -34 34 -34q35 0 35 34h102q0 -59 -39 -97.5t-98 -38.5q-58 0 -96.5 37.5t-38.5 94.5v252zM211 287v83q0 14 -10.5 24t-24.5 10t-24 -10t-10 -24v-83h69zM210 541h-66l-132 141h108z" />
    <glyph glyph-name="eacute" unicode="&#xe9;" horiz-adv-x="353" 
d="M40 373q0 57 38 94.5t97 37.5q54 0 95.5 -38.5t41.5 -91.5v-189h-171v-61q0 -34 34 -34q35 0 35 34h102q0 -59 -39 -97.5t-98 -38.5q-58 0 -96.5 37.5t-38.5 94.5v252zM210 287v83q0 14 -10.5 24t-24.5 10t-24 -10t-10 -24v-83h69zM231 681h108l-132 -141h-66z" />
    <glyph glyph-name="ecircumflex" unicode="&#xea;" horiz-adv-x="350" 
d="M40 373q0 57 38 94.5t97 37.5q54 0 95.5 -38.5t41.5 -91.5v-189h-171v-61q0 -34 34 -34q35 0 35 34h102q0 -59 -39 -97.5t-98 -38.5q-58 0 -96.5 37.5t-38.5 94.5v252zM210 287v83q0 14 -10.5 24t-24.5 10t-24 -10t-10 -24v-83h69zM129 659h94l98 -141h-91l-50 68
l-49 -68h-100z" />
    <glyph glyph-name="edieresis" unicode="&#xeb;" horiz-adv-x="354" 
d="M42 373q0 57 38 94.5t97 37.5q54 0 95.5 -38.5t41.5 -91.5v-189h-171v-61q0 -34 34 -34q35 0 35 34h102q0 -59 -39 -97.5t-98 -38.5q-58 0 -96.5 37.5t-38.5 94.5v252zM212 287v83q0 14 -10.5 24t-24.5 10t-24 -10t-10 -24v-83h69zM212 666h90v-102h-90v102zM50 666h90
v-102h-90v102z" />
    <glyph glyph-name="igrave" unicode="&#xec;" horiz-adv-x="180" 
d="M144 0h-102v491h102v-491zM127 540h-66l-132 141h108z" />
    <glyph glyph-name="iacute" unicode="&#xed;" horiz-adv-x="181" 
d="M143 -2h-102v491h102v-491zM146 682h108l-132 -141h-66z" />
    <glyph glyph-name="icircumflex" unicode="&#xee;" horiz-adv-x="182" 
d="M144 -2h-102v491h102v-491zM46 659h94l98 -141h-91l-50 68l-49 -68h-100z" />
    <glyph glyph-name="idieresis" unicode="&#xef;" horiz-adv-x="181" 
d="M143 -2h-102v491h102v-491zM127 666h90v-102h-90v102zM-35 666h90v-102h-90v102z" />
    <glyph glyph-name="ntilde" unicode="&#xf1;" 
d="M314 0h-102v363q0 14 -10 24t-25 10q-16 0 -24.5 -10t-8.5 -24v-363h-102v366q0 54 41 93t95 39t95 -38.5t41 -91.5v-368zM313 679q-17 -111 -81 -111q-14 0 -59.5 20t-55.5 20q-35 0 -35 -45h-41q17 111 81 111q14 0 60 -20t55 -20q35 0 35 45h41z" />
    <glyph glyph-name="ograve" unicode="&#xf2;" 
d="M210 125v244q0 12 -8.5 23t-25.5 11q-13 0 -23.5 -10t-10.5 -24v-244q0 -14 8.5 -24.5t25.5 -9.5q20 0 27 10t7 24zM312 120q0 -56 -39.5 -93.5t-96.5 -37.5q-51 0 -93.5 40.5t-42.5 92.5v250q0 55 41.5 94t94.5 39q55 0 95.5 -38.5t40.5 -91.5v-255zM211 540h-66
l-132 141h108z" />
    <glyph glyph-name="oacute" unicode="&#xf3;" 
d="M210 125v244q0 12 -8.5 23t-25.5 11q-13 0 -23.5 -10t-10.5 -24v-244q0 -14 8.5 -24.5t25.5 -9.5q20 0 27 10t7 24zM312 120q0 -56 -39.5 -93.5t-96.5 -37.5q-51 0 -93.5 40.5t-42.5 92.5v250q0 55 41.5 94t94.5 39q55 0 95.5 -38.5t40.5 -91.5v-255zM230 681h108
l-132 -141h-66z" />
    <glyph glyph-name="ocircumflex" unicode="&#xf4;" 
d="M210 125v244q0 12 -8.5 23t-25.5 11q-13 0 -23.5 -10t-10.5 -24v-244q0 -14 8.5 -24.5t25.5 -9.5q20 0 27 10t7 24zM312 120q0 -56 -39.5 -93.5t-96.5 -37.5q-51 0 -93.5 40.5t-42.5 92.5v250q0 55 41.5 94t94.5 39q55 0 95.5 -38.5t40.5 -91.5v-255zM130 659h94l98 -141
h-91l-50 68l-49 -68h-100z" />
    <glyph glyph-name="otilde" unicode="&#xf5;" horiz-adv-x="351" 
d="M210 125v244q0 12 -8.5 23t-25.5 11q-13 0 -23.5 -10t-10.5 -24v-244q0 -14 8.5 -24.5t25.5 -9.5q20 0 27 10t7 24zM312 120q0 -56 -39.5 -93.5t-96.5 -37.5q-51 0 -93.5 40.5t-42.5 92.5v250q0 55 41.5 94t94.5 39q55 0 95.5 -38.5t40.5 -91.5v-255zM312 679
q-17 -111 -81 -111q-14 0 -59.5 20t-55.5 20q-35 0 -35 -45h-41q17 111 81 111q14 0 60 -20t55 -20q35 0 35 45h41z" />
    <glyph glyph-name="odieresis" unicode="&#xf6;" horiz-adv-x="354" 
d="M210 125v244q0 12 -8.5 23t-25.5 11q-13 0 -23.5 -10t-10.5 -24v-244q0 -14 8.5 -24.5t25.5 -9.5q20 0 27 10t7 24zM312 120q0 -56 -39.5 -93.5t-96.5 -37.5q-51 0 -93.5 40.5t-42.5 92.5v250q0 55 41.5 94t94.5 39q55 0 95.5 -38.5t40.5 -91.5v-255zM212 665h90v-102
h-90v102zM50 665h90v-102h-90v102z" />
    <glyph glyph-name="divide" unicode="&#xf7;" horiz-adv-x="509" 
d="M254 524q26 0 45 -19t19 -45t-19 -45t-45 -19t-45 19t-19 45t19 45t45 19zM254 110q26 0 45 -19t19 -45t-19 -45t-45 -19t-45 19t-19 45t19 45t45 19zM1 293h506v-80h-506v80z" />
    <glyph glyph-name="oslash" unicode="&#xf8;" horiz-adv-x="384" 
d="M60 71q-20 40 -20 87v191q0 73 40 118.5t112 45.5q66 0 106 -42l41 69l34 -21l-49 -83q20 -40 20 -87v-191q0 -73 -39 -117q-41 -47 -113 -47q-66 0 -106 42l-41 -69l-34 21zM145 135q6 -39 47 -39q50 0 50 58v144zM239 372q-6 39 -47 39q-50 0 -50 -58v-144z" />
    <glyph glyph-name="ugrave" unicode="&#xf9;" 
d="M313 122q0 -54 -41 -93.5t-95 -39.5t-95 39t-41 92v374h102v-369q0 -14 10 -24t24 -10t24 10.5t10 23.5v369h102v-372zM206 540h-66l-132 141h108z" />
    <glyph glyph-name="yacute" unicode="&#xfd;" horiz-adv-x="351" 
d="M177 -213h-136v102h136q14 0 24 10t10 24v77h-40q-51 0 -90.5 39.5t-39.5 90.5v364h102v-359q0 -34 34 -34h34v393h102l-1 -571q0 -57 -39 -96.5t-96 -39.5zM229 682h108l-132 -141h-66z" />
    <glyph glyph-name="ydieresis" unicode="&#xff;" 
d="M176 -213h-136v102h136q14 0 24 10t10 24v77h-40q-51 0 -90.5 39.5t-39.5 90.5v364h102v-359q0 -34 34 -34h34v393h102l-1 -571q0 -57 -39 -96.5t-96 -39.5zM213 666h90v-102h-90v102zM51 666h90v-102h-90v102z" />
    <glyph glyph-name="gcedilla" unicode="&#x123;" horiz-adv-x="355" 
d="M140 712h90v-218h134v-80h-134v-321h134v-80h-134v-218h-90v218h-134v80h134v321h-134v80h134v218z" />
    <glyph glyph-name="dotlessi" unicode="&#x131;" horiz-adv-x="157" 
d="M147 -2h-102v491h102v-491z" />
    <glyph glyph-name="OE" unicode="&#x152;" horiz-adv-x="633" 
d="M592 616h-202v-209h176v-96h-176v-209h202v-102h-304v34q-33 -40 -87 -40q-71 0 -113 50q-40 47 -40 119v386q0 72 41.5 120.5t111.5 48.5q58 0 85 -42l2 36h304v-96zM288 554q0 32 -19 53t-50 21q-30 0 -49.5 -21.5t-19.5 -52.5v-396q0 -32 19 -53t50 -21
q30 0 49.5 21.5t19.5 52.5v396z" />
    <glyph glyph-name="oe" unicode="&#x153;" horiz-adv-x="589" 
d="M144 149q0 -58 50 -58t50 58v196q0 58 -50 58t-50 -58v-196zM346 287h100v58q0 58 -50 58t-50 -58v-58zM42 329q0 67 23 111q17 31 55 49q35 16 74 16q60 0 101 -34q38 34 101 34q69 0 110.5 -44t41.5 -114v-140h-202v-66q0 -50 50 -50q45 0 50 51h102q0 -67 -42.5 -110
t-109.5 -43q-72 0 -105 35q-37 -35 -97 -35q-39 0 -73 16q-38 18 -55 50q-24 42 -24 110v164z" />
    <glyph glyph-name="florin" unicode="&#x192;" horiz-adv-x="436" 
d="M119 451h84l23 128q25 139 139 139q11 0 32 -2t32 -2l-14 -92l-39 6q-31 0 -44 -23q-8 -14 -15 -51l-18 -103h77l-13 -80h-78l-71 -398q-15 -84 -44 -123q-38 -52 -114 -52q-27 0 -53 8l11 94q18 -6 40 -6q48 0 59 60l75 417h-80z" />
    <glyph glyph-name="circumflex" unicode="&#x2c6;" horiz-adv-x="293" 
d="M101 715h94l98 -141h-91l-50 68l-49 -68h-100z" />
    <glyph glyph-name="caron" unicode="&#x2c7;" horiz-adv-x="298" 
d="M3 715h100l49 -68l50 68h91l-98 -141h-94z" />
    <glyph glyph-name="macron" unicode="&#x2c9;" horiz-adv-x="308" 
d="M24 667h274v-60h-274v60z" />
    <glyph glyph-name="breve" unicode="&#x2d8;" horiz-adv-x="310" 
d="M155 556q-32 0 -60 12t-49 32.5t-33 48.5t-12 60h68q0 -37 25 -61.5t62 -24.5q36 0 61.5 24.5t26.5 61.5h65q0 -32 -12.5 -60t-33.5 -48.5t-49 -32.5t-59 -12z" />
    <glyph glyph-name="dotaccent" unicode="&#x2d9;" horiz-adv-x="148" 
d="M48 688h90v-102h-90v102z" />
    <glyph glyph-name="ring" unicode="&#x2da;" horiz-adv-x="182" 
d="M94 540q-28 0 -47 19t-19 47t19 47t47 19t47 -19t19 -47t-19 -47t-47 -19zM94 627q-20 0 -20 -21q0 -20 20 -20q21 0 21 20q0 21 -21 21z" />
    <glyph glyph-name="ogonek" unicode="&#x2db;" horiz-adv-x="182" 
d="M195 -202q-42 -22 -97 -22q-43 0 -71 24.5t-28 66.5q0 44 28 78q18 22 65 55h51q-64 -60 -64 -126q0 -52 49 -52q30 0 53 13z" />
    <glyph glyph-name="tilde" unicode="&#x2dc;" horiz-adv-x="288" 
d="M279 699q-17 -111 -81 -111q-14 0 -59.5 20t-55.5 20q-35 0 -35 -45h-41q17 111 81 111q14 0 60 -20t55 -20q35 0 35 45h41z" />
    <glyph glyph-name="hungarumlaut" unicode="&#x2dd;" horiz-adv-x="369" 
d="M263 715h108l-132 -141h-66zM101 715h108l-132 -141h-66z" />
    <glyph glyph-name="tonos" unicode="&#x384;" horiz-adv-x="188" 
d="M85 0h46l-46 -60l31 2h8q37 0 57 -22.5t20 -52.5q0 -45 -40 -70q-35 -21 -83 -21q-43 0 -93 19l17 42q42 -15 65 -15q54 0 54 41q0 17 -13.5 27.5t-31.5 10.5q-21 0 -39 -7l-17 20z" />
    <glyph glyph-name="anoteleia" unicode="&#x387;" horiz-adv-x="209" 
d="M104 362q26 0 45 -19t19 -45t-19 -45t-45 -19t-45 19t-19 45t19 45t45 19z" />
    <glyph glyph-name="endash" unicode="&#x2013;" horiz-adv-x="499" 
d="M0 331h500v-102h-500v102z" />
    <glyph glyph-name="emdash" unicode="&#x2014;" horiz-adv-x="999" 
d="M0 331h1000v-102h-1000v102z" />
    <glyph glyph-name="quoteleft" unicode="&#x2018;" horiz-adv-x="189" 
d="M144 536h-102v102l102 74v-176z" />
    <glyph glyph-name="quoteright" unicode="&#x2019;" horiz-adv-x="181" 
d="M42 712h102v-102l-102 -74v176z" />
    <glyph glyph-name="quotesinglbase" unicode="&#x201a;" horiz-adv-x="182" 
d="M42 102h102v-102l-102 -74v176z" />
    <glyph glyph-name="quotedblleft" unicode="&#x201c;" horiz-adv-x="318" 
d="M140 536h-102v102l102 74v-176zM280 536h-102v102l102 74v-176z" />
    <glyph glyph-name="quotedblright" unicode="&#x201d;" horiz-adv-x="320" 
d="M180 712h102v-102l-102 -74v176zM40 712h102v-102l-102 -74v176z" />
    <glyph glyph-name="quotedblbase" unicode="&#x201e;" horiz-adv-x="311" 
d="M174 102h102v-102l-102 -74v176zM34 102h102v-102l-102 -74v176z" />
    <glyph glyph-name="dagger" unicode="&#x2020;" horiz-adv-x="430" 
d="M174 396h-134v90h134v226h90v-226h134v-90h-134v-601h-90v601z" />
    <glyph glyph-name="ellipsis" unicode="&#x2026;" horiz-adv-x="614" 
d="M462 102h102v-102h-102v102zM259 102h102v-102h-102v102zM56 102h102v-102h-102v102z" />
    <glyph glyph-name="perthousand" unicode="&#x2030;" horiz-adv-x="892" 
d="M461 710l-204 -710h-80l204 710h80zM173 432v174q0 10 -6.5 18t-19.5 8q-11 0 -18.5 -8t-7.5 -18v-174q0 -13 6 -20.5t20 -7.5t20 7t6 21zM249 428q0 -43 -30.5 -71.5t-71.5 -28.5q-39 0 -70.5 28.5t-31.5 71.5v181q0 41 30.5 70t71.5 29q40 0 71 -29t31 -69v-182z
M519 93v174q0 10 -6.5 18t-19.5 8q-11 0 -18.5 -8t-7.5 -18v-174q0 -13 6 -20.5t20 -7.5t20 7t6 21zM595 89q0 -43 -30.5 -71.5t-71.5 -28.5q-39 0 -70.5 28.5t-31.5 71.5v181q0 41 30.5 70t71.5 29q40 0 71 -29t31 -69v-182zM779 93v174q0 10 -6.5 18t-19.5 8
q-11 0 -18.5 -8t-7.5 -18v-174q0 -13 6 -20.5t20 -7.5t20 7t6 21zM855 89q0 -43 -30.5 -71.5t-71.5 -28.5q-39 0 -70.5 28.5t-31.5 71.5v181q0 41 30.5 70t71.5 29q40 0 71 -29t31 -69v-182z" />
    <glyph glyph-name="guilsinglleft" unicode="&#x2039;" horiz-adv-x="243" 
d="M213 377l-101 -100l101 -100v-102l-203 202l203 202v-102z" />
    <glyph glyph-name="guilsinglright" unicode="&#x203a;" horiz-adv-x="256" 
d="M35 479l203 -202l-203 -202v102l101 100l-101 100v102z" />
    <glyph glyph-name="fraction" unicode="&#x2044;" horiz-adv-x="464" 
d="M407 729h90l-437 -746h-90z" />
    <glyph glyph-name="trademark" unicode="&#x2122;" horiz-adv-x="905" 
d="M798 646l-139 -346h-41l-136 346l-2 -346h-72v412h114l117 -301l117 301h114v-412h-72v346zM159 646h-127v66h326v-66h-127v-346h-72v346z" />
    <glyph glyph-name="glyph210" horiz-adv-x="162" 
 />
    <glyph glyph-name="glyph210" horiz-adv-x="162" 
 />
    <glyph glyph-name="Euro" unicode="&#x20ac;" horiz-adv-x="374" 
d="M218 -5q-55 0 -96.5 41t-41.5 94v116h-54v71h54v44h-54v71h54v136q0 60 39.5 98t98.5 38q51 0 92.5 -40.5t41.5 -89.5v-6h-102q0 34 -32 34q-15 0 -25.5 -9.5t-10.5 -24.5v-136h125l-10 -71h-115v-44h109l-10 -71h-99v-116q0 -13 11 -23.5t25 -10.5q32 0 32 34v-3v0v3
h102q0 -59 -38 -97t-96 -38z" />
    <glyph glyph-name="glyph217" horiz-adv-x="162" 
 />
    <glyph glyph-name="glyph218" horiz-adv-x="162" 
 />
    <glyph glyph-name="glyph233" horiz-adv-x="162" 
 />
    <glyph glyph-name="Scaron" unicode="&#x160;" horiz-adv-x="380" 
d="M340 135q0 -55 -38 -100.5t-115 -45.5q-68 0 -109.5 42t-41.5 110v50h102v-50q0 -22 14 -36t35 -14t36 14.5t15 35.5v169q0 20 -15.5 35t-35.5 15q-66 0 -108.5 46.5t-42.5 112.5v50q0 66 42.5 109t108.5 43q59 0 106 -44.5t47 -102.5v-55h-102v50q0 21 -15 35.5
t-36 14.5t-35 -14.5t-14 -35.5v-57q0 -21 14 -35.5t35 -14.5q60 0 106.5 -45t46.5 -104v-178zM31 900h100l49 -68l50 68h91l-98 -141h-94z" />
    <glyph glyph-name="uacute" unicode="&#xfa;" 
d="M313 122q0 -54 -41 -93.5t-95 -39.5t-95 39t-41 92v374h102v-369q0 -14 10 -24t24 -10t24 10.5t10 23.5v369h102v-372zM233 681h108l-132 -141h-66z" />
    <glyph glyph-name="ucircumflex" unicode="&#xfb;" horiz-adv-x="355" 
d="M313 122q0 -54 -41 -93.5t-95 -39.5t-95 39t-41 92v374h102v-369q0 -14 10 -24t24 -10t24 10.5t10 23.5v369h102v-372zM128 659h94l98 -141h-91l-50 68l-49 -68h-100z" />
    <glyph glyph-name="udieresis" unicode="&#xfc;" 
d="M313 122q0 -54 -41 -93.5t-95 -39.5t-95 39t-41 92v374h102v-369q0 -14 10 -24t24 -10t24 10.5t10 23.5v369h102v-372zM211 665h90v-102h-90v102zM49 665h90v-102h-90v102z" />
    <glyph glyph-name="Zcaron" unicode="&#x17d;" horiz-adv-x="388" 
d="M352 709l-180 -607h174v-102h-309l180 607h-175v102h310zM41 877h100l49 -68l50 68h91l-98 -141h-94z" />
    <glyph glyph-name="scaron" unicode="&#x161;" horiz-adv-x="341" 
d="M305 119q0 -56 -40.5 -93t-96.5 -37q-54 0 -94.5 41t-40.5 94h101q0 -34 34 -34q14 0 24.5 10t10.5 24v75q0 34 -35 34q-57 2 -96 41t-39 95q0 57 39.5 96.5t95.5 39.5q54 0 95.5 -38.5t41.5 -91.5v-6h-102q0 34 -35 34q-13 0 -23.5 -10t-10.5 -24q0 -31 34 -34
q54 0 95.5 -38t41.5 -92v-86zM16 682h100l49 -68l50 68h91l-98 -141h-94z" />
    <glyph glyph-name="zcaron" unicode="&#x17e;" horiz-adv-x="336" 
d="M307 494l-139 -392h134v-102h-277l139 393h-133v101h276zM12 682h100l49 -68l50 68h91l-98 -141h-94z" />
    <glyph glyph-name="Ydieresis" unicode="&#x178;" horiz-adv-x="349" 
d="M332 709l-108 -384v-325h-101v325l-107 384h105l53 -271l52 271h106zM210 880h90v-102h-90v102zM48 880h90v-102h-90v102z" />
    </font>
</defs>
</svg>
